<?xml version="1.0" standalone="no"?>
<!DOCTYPE svg PUBLIC "-//W3C//DTD SVG 20010904//EN"
 "http://www.w3.org/TR/2001/REC-SVG-20010904/DTD/svg10.dtd">
<svg version="1.0" xmlns="http://www.w3.org/2000/svg"
 width="472.000000pt" height="96.000000pt" viewBox="0 0 472.000000 96.000000"
 preserveAspectRatio="xMidYMid meet">

<g transform="translate(0.000000,96.000000) scale(0.100000,-0.100000)"
fill="#000000" stroke="none">
<path d="M147 945 c-44 -15 -83 -48 -103 -87 -17 -32 -18 -111 -3 -141 6 -12
108 -120 227 -239 l216 -217 -14 -28 c-8 -15 -16 -31 -18 -35 -2 -5 60 -8 137
-8 78 0 141 3 141 6 0 4 -131 136 -292 294 -291 286 -292 287 -276 311 l15 24
312 3 c171 1 311 1 311 -1 0 -2 -23 -46 -51 -97 l-50 -93 45 -46 c25 -25 47
-43 49 -41 8 10 227 401 227 405 0 3 -188 5 -417 5 -328 -1 -426 -4 -456 -15z"/>
<path d="M580 475 c160 -160 290 -297 290 -306 0 -37 -16 -39 -332 -39 -170 0
-308 4 -308 9 0 5 20 45 45 90 25 45 45 87 45 94 0 17 -78 93 -87 84 -3 -4
-57 -96 -118 -205 l-112 -197 414 -3 c264 -1 429 2 454 8 83 23 137 104 124
190 -6 43 -18 57 -232 272 l-226 227 16 25 c10 14 17 29 17 33 0 4 -63 8 -140
8 l-140 0 290 -290z"/>
<path d="M1031 673 c-39 -20 -65 -71 -56 -113 8 -35 36 -61 105 -95 70 -35 90
-53 90 -80 0 -69 -115 -73 -167 -5 -11 13 -14 13 -33 -6 l-21 -21 31 -31 c75
-75 210 -61 247 25 15 37 9 78 -16 107 -9 10 -50 35 -92 57 -81 40 -97 63 -72
98 19 29 81 28 117 0 25 -20 29 -20 43 -6 23 22 9 45 -39 67 -53 24 -92 25
-137 3z"/>
<path d="M3842 680 c-59 -14 -112 -57 -138 -113 -26 -57 -30 -97 -13 -148 30
-88 105 -142 199 -143 30 -1 63 2 74 7 18 7 18 8 1 27 -13 14 -31 20 -63 20
-96 0 -152 56 -152 153 0 45 5 61 26 87 35 42 74 60 127 60 31 0 49 6 61 19
17 19 17 20 -21 30 -43 12 -54 12 -101 1z"/>
<path d="M4050 677 c-83 -27 -150 -137 -136 -224 33 -191 278 -245 389 -86
115 163 -56 373 -253 310z m157 -68 c44 -27 67 -73 66 -131 -2 -151 -193 -204
-274 -76 -26 42 -23 131 6 171 43 58 138 75 202 36z"/>
<path d="M4050 581 c-10 -7 -14 -33 -15 -101 0 -80 2 -93 19 -102 22 -12 31
-1 47 55 10 39 6 79 -13 130 -11 29 -16 31 -38 18z"/>
<path d="M1282 526 c3 -139 5 -158 24 -183 68 -91 210 -91 278 0 19 25 21 44
24 183 l3 154 -30 0 -31 0 0 -135 c0 -144 -10 -183 -49 -205 -49 -25 -128 -2
-149 45 -7 16 -12 77 -12 160 l0 135 -31 0 -30 0 3 -154z"/>
<path d="M1670 481 l0 -201 35 0 35 0 0 80 0 80 61 0 c78 0 122 21 144 67 23
48 14 99 -25 138 -30 29 -33 30 -140 33 l-110 4 0 -201z m201 131 c15 -13 22
-30 22 -52 0 -48 -31 -70 -99 -70 l-54 0 0 70 0 70 54 0 c37 0 61 -6 77 -18z"/>
<path d="M2000 480 l0 -200 135 0 135 0 0 25 0 25 -105 0 -105 0 0 70 0 70 75
0 c73 0 75 1 75 25 0 24 -2 25 -75 25 l-75 0 0 55 0 55 100 0 100 0 0 25 0 25
-130 0 -130 0 0 -200z"/>
<path d="M2310 480 l0 -200 30 0 30 0 0 80 0 80 38 0 c36 0 41 -4 97 -80 53
-73 62 -80 93 -80 38 0 39 -4 -31 92 l-49 68 36 34 c32 29 36 39 36 82 0 95
-44 124 -185 124 l-95 0 0 -200z m194 129 c17 -13 26 -30 26 -49 0 -44 -40
-70 -106 -70 l-54 0 0 70 0 70 54 0 c39 0 60 -6 80 -21z"/>
<path d="M2660 480 l0 -200 30 0 29 0 3 93 3 92 103 3 102 3 0 -96 0 -95 30 0
30 0 0 200 0 200 -30 0 -30 0 0 -80 0 -80 -105 0 -105 0 0 80 0 80 -30 0 -30
0 0 -200z"/>
<path d="M3060 480 l0 -200 135 0 135 0 0 25 c0 24 -1 24 -102 27 l-103 3 -3
68 -3 67 81 0 c79 0 80 0 80 25 0 25 -1 25 -80 25 l-80 0 0 55 0 55 105 0 105
0 0 25 0 25 -135 0 -135 0 0 -200z"/>
<path d="M3370 481 l0 -201 33 0 32 0 0 78 0 77 37 3 c35 3 39 0 98 -77 55
-74 64 -81 95 -81 l35 0 -59 81 -59 80 36 34 c33 30 37 39 37 84 0 44 -4 55
-33 83 -32 33 -33 33 -142 36 l-110 4 0 -201z m198 133 c16 -11 22 -25 22 -54
0 -53 -29 -72 -102 -68 l-53 3 -1 60 c-1 33 0 63 3 68 8 14 108 7 131 -9z"/>
<path d="M4380 480 l0 -200 35 0 35 0 0 95 0 96 103 -3 102 -3 3 -92 3 -93 29
0 30 0 0 200 0 200 -30 0 -29 0 -3 -77 -3 -78 -102 -3 -103 -3 0 81 0 80 -35
0 -35 0 0 -200z"/>
</g>
</svg>
